<?xml version="1.0" encoding="UTF-8" standalone="no"?>
<!DOCTYPE svg PUBLIC "-//W3C//DTD SVG 1.1//EN" "http://www.w3.org/Graphics/SVG/1.1/DTD/svg11.dtd">
<svg width="100%" height="100%" viewBox="0 0 1749 2481" version="1.1" xmlns="http://www.w3.org/2000/svg" xmlns:xlink="http://www.w3.org/1999/xlink" xml:space="preserve" xmlns:serif="http://www.serif.com/" style="fill-rule:evenodd;clip-rule:evenodd;stroke-linejoin:round;stroke-miterlimit:2;">
    <g transform="matrix(4.744581,0,0,4.866369,-1747.194386,-140.05121)">
        <path d="M544.344,61.375C547.087,58.047 549.336,54.027 552.539,54.065C555.455,54.099 560.319,60.558 560.842,61.243C566.866,69.127 567.026,68.975 573.076,76.846C578.077,83.353 578.079,83.335 583.171,89.758C584.483,91.413 584.296,91.533 599.358,110.609C600.459,112.003 610.434,124.637 612.987,128.137C614.411,130.088 614.588,129.93 616.043,131.864C622.346,140.233 622.48,140.126 623.017,140.862C625.034,143.63 705.582,246.693 731.728,280.327C734.707,284.159 736.305,285.669 736.366,287.109C736.372,287.258 736.362,287.262 736.335,287.556C736.314,287.788 736.214,288.019 736.095,288.265C736.04,288.377 723.314,304.679 722.6,305.577C715.624,314.363 715.762,314.454 715.141,315.206C712.899,317.921 698.55,336.48 697.647,337.613C693.506,342.814 685.125,353.683 683.624,355.594C673.443,368.547 667.134,376.741 663.44,381.452C653.762,393.795 653.748,393.766 652.919,394.847C650.487,398.02 644.216,406.202 622.236,434.297C595.398,468.6 560.123,513.97 558.718,515.675C557.149,517.577 554.156,521.848 553.375,522.247C552.351,522.769 551.572,521.652 551.479,521.519C550.671,520.36 550.666,520.394 549.752,519.296C549.131,518.55 529.349,493.156 529.091,492.809C527.934,491.257 527.799,491.374 514.201,473.725C510.336,468.709 373.35,293.327 370.061,288.828C368.146,286.209 369.265,285.886 371.262,283.319C399.602,246.99 427.941,210.661 456.281,174.332C480.026,144.01 479.875,143.917 503.645,113.608C504.238,112.852 510.272,105.158 511.045,104.143C518.23,94.715 524.187,87.332 525.075,86.166C534.831,73.365 535.026,73.534 536.058,72.15C540.132,66.69 540.294,66.834 544.344,61.375Z" style="fill:rgb(66,45,39);"/>
    </g>
    <g transform="matrix(4.744581,0,0,4.866369,-1747.194386,-140.05121)">
        <path d="M550.5,454.043C546.593,453.877 546.529,453.836 544.551,452.437C544.251,452.226 542.484,450.977 542.097,448.572C541.507,444.907 544.095,441.993 544.456,441.465C546.712,438.165 549.074,436.985 547.565,434.452C546.461,432.598 532.514,427.536 510.848,406.139C508.35,403.671 500.172,395.595 481.393,373.589C473.933,364.846 473.807,364.976 465.596,355.419C454.986,343.069 454.882,343.169 453.979,342.08C452.927,340.811 446.275,332.793 440.579,326.43C437.248,322.708 437.271,322.71 434.029,318.917C430.829,315.173 427.948,315.44 424.318,313.946C418.553,311.575 413.987,297.08 416.337,290.437C416.776,289.199 440.008,247.081 467.301,216.327C495.834,184.176 498.792,179.689 541.655,128.627C553.326,114.724 556.235,108.755 560.537,109.131C563.043,109.351 564.301,111.035 568.624,117.413C580.132,134.395 580.479,134.969 581.431,136.546C582.828,138.86 622.785,197.494 624.348,199.607C626.457,202.459 631.579,210.126 634.606,214.422C646.255,230.951 667.376,262.59 672.837,268.17C678.784,274.247 681.844,271.522 683.484,271.367C685.201,271.206 685.187,271.795 685.173,273.51C685.131,279.021 685.177,292.864 685.146,293.489C685.018,296.01 684.679,295.998 674.755,308.695C665.502,320.531 665.451,320.459 656.154,332.232C644.19,347.383 593.677,404.406 593.552,404.545C578.323,421.586 578.536,421.76 577.197,423.227C568.817,432.409 573.109,435.534 563.939,443.953C559.388,448.132 555.939,453.079 554.562,453.635C553.361,454.12 553.32,453.911 550.5,454.043Z" style="fill:rgb(254,254,226);"/>
    </g>
    <g transform="matrix(4.744581,0,0,4.866369,-1747.194386,-140.05121)">
        <path d="M557.409,421.139C552.08,421.946 548.168,420.897 541.62,413.397C533.514,404.112 533.591,401.775 529.298,395.633C525.184,389.747 517.34,377.351 493.744,357.213C481.307,346.598 455.924,325.847 437.404,303.578C432.82,298.066 429.352,294.821 435.652,287.632C441.755,280.669 450.224,267.448 458.263,257.32C459.103,256.263 507.713,191.903 524.537,172.531C525.914,170.946 525.879,170.94 541.556,152.547C546.828,146.362 547.196,145.574 552.288,140.282C554.877,137.591 555.562,140.344 558.833,144.223C559.309,144.787 559.265,144.807 564.624,151.404C567.581,155.044 576.861,166.81 577.921,168.154C580.345,171.227 591.638,184.893 615.437,218.547C628.258,236.677 628.389,236.555 641.138,254.75C641.194,254.831 656.282,276.855 660.581,280.4C663.702,282.973 672.251,286.387 672.619,287.436C672.956,288.396 673.231,288.705 669.094,294.174C668.781,294.588 665.001,299.181 664.644,299.615C663.049,301.552 652.214,315.151 632.324,338.353C589.845,387.905 589.938,387.975 586.216,392.259C577.409,402.4 566.996,415.474 563.319,418.258C561.099,419.939 557.909,420.976 557.409,421.139Z" style="fill:rgb(66,45,39);"/>
    </g>
    <g transform="matrix(4.744581,0,0,4.866369,-1747.194386,-140.05121)">
        <path d="M515.929,239.547C513.853,262.158 513.212,310.607 513.148,313.489C512.869,326.258 518.492,330.068 517.232,340.464C517.044,342.021 516.846,343.784 513.524,344.598C511.85,345.008 510.624,345.195 506.453,341.555C500.427,336.295 500.167,332.076 500.099,311.502C500.047,295.847 498.591,293.992 488.627,290.17C481.575,287.464 476.312,284.348 472.451,290.466C466.363,300.116 462.762,300.699 461.572,300.891C456.161,301.767 448.452,297.178 451.617,291.565C452.271,290.405 467.747,269.789 475.33,257.394C480.169,249.485 481.635,247.4 486.367,239.42C488.654,235.564 488.73,235.636 490.95,231.765C491.256,231.231 491.405,231.328 495.005,225.211C495.569,224.253 500.529,215.825 502.141,213.279C504.393,209.724 506.488,202.72 512.631,205.206C515.709,206.452 517.943,210.258 520.276,213.645C521.932,216.048 519.558,216.007 518.82,218.568C518.528,219.583 518.493,222.32 516.293,236.47C516.261,236.674 515.957,239.301 515.929,239.547Z" style="fill:rgb(254,254,226);"/>
    </g>
    <g transform="matrix(4.744581,0,0,4.866369,-1747.194386,-140.05121)">
        <path d="M578.061,296.487C578.412,277.835 578.708,275.618 578.809,261.504C578.829,258.703 578.971,239.053 579.273,226.496C579.393,221.504 578.824,220.489 579.078,217.45C579.272,215.129 580.852,211.789 582.548,210.568C584.951,208.838 588.652,210.875 589.452,211.559C591.538,213.341 594.597,222.701 594.563,230.5C594.452,256.201 592.975,300.579 592.857,306.494C592.853,306.729 592.809,308.927 593.613,309.337C594.848,309.967 595.35,308.599 595.405,308.449C597.871,301.733 599.407,294.117 600.412,290.476C605.551,271.86 608.55,257.986 609.315,255.439C611.125,249.406 618.289,247.356 621.396,253.557C623.864,258.483 622.532,259.928 619.127,272.402C618.314,275.38 613.548,292.841 608.343,309.453C602.202,329.051 601.305,329.555 598.686,336.574C598.443,337.223 588.817,359.267 588.657,359.581C584.982,366.815 576.294,363.11 574.506,359.497C572.615,355.677 573.516,355.408 576.28,324.479C577.53,310.502 577.439,310.509 578.061,296.487Z" style="fill:rgb(254,254,226);"/>
    </g>
    <g transform="matrix(4.744581,0,0,4.866369,-1747.194386,-140.05121)">
        <path d="M530.05,235.486C530.326,223.516 530.679,222.121 530.68,215.5C530.681,203.678 530.598,199.164 531.49,196.496C532.8,192.573 534.455,192.596 537.529,193.386C540.194,194.071 545,195.107 546.164,206.541C547.424,218.926 546.635,227.647 543.586,259.507C540.642,290.26 541.496,310.614 541.491,315.5C541.47,333.726 539.809,334.224 539.897,343.49C539.986,352.818 544.257,361.577 548.351,366.616C557.307,377.644 559.968,376.658 563.081,382.711C566.879,390.095 560.167,391.147 559.47,391.213C553.569,391.775 548.925,386.852 540.621,378.382C536.8,374.486 537.339,373.96 535.41,372.636C531.545,369.981 524.685,367.273 525.575,350.504C528.644,292.651 528.78,265.312 530.05,235.486Z" style="fill:rgb(254,254,226);"/>
    </g>
    <g transform="matrix(4.744581,0,0,4.866369,-1747.194386,-140.05121)">
        <path d="M554.066,203.484C554.504,188.039 554.527,187.876 554.716,186.533C555.71,179.487 562.519,178.639 565.65,181.317C570.461,185.433 570.578,191.803 570.608,199.499C570.715,226.779 570.329,226.785 570.885,230.437C571.435,234.047 567.149,261.161 565.906,281.529C563.805,315.968 566.221,325.87 563.248,329.281C560.721,332.179 551.346,331.247 549.974,324.415C549.411,321.61 553.975,205.498 554.066,203.484Z" style="fill:rgb(254,254,226);"/>
    </g>
    <g transform="matrix(4.744581,0,0,4.866369,-1747.194386,-140.05121)">
        <path d="M629.889,307.548C629.772,309.007 629.29,311.453 630.24,312.736C631.254,314.105 632.342,313.37 632.682,312.618C634.06,309.564 633.449,307.283 641.515,306.932C641.889,306.916 644.423,306.883 644.447,306.89C646.596,307.508 645.92,308.276 645.274,310.429C643.889,315.046 642.013,316.552 631.786,327.76C621.66,338.856 621.699,338.896 620.712,339.75C614.687,344.963 608.603,341.376 611.305,329.452C614.847,313.827 620.032,294.03 622.988,281.619C623.48,279.556 626.757,267.359 626.989,266.67C628.618,261.834 631.043,262.103 633.481,262.59C636.374,263.168 638.768,264.688 642.593,268.404C648.503,274.148 649.368,276.973 649.777,279.453C650.35,282.925 648.945,282.722 645.453,283.093C640.201,283.65 640.331,282.606 638.68,282.014C637.222,281.492 636.435,281.652 635.709,284.549C634.377,289.867 640.838,289.488 643.197,290.961C643.812,291.345 646.521,293.784 646.705,294.411C647.169,295.989 645.744,297.177 642.781,298.993C640.377,300.467 637.64,300.164 634.391,301.138C629.995,302.456 630.173,306.211 629.889,307.548Z" style="fill:rgb(254,254,226);"/>
    </g>
    <g transform="matrix(4.744581,0,0,4.866369,-1747.194386,-140.05121)">
        <path d="M492.123,260.252C496.6,253.436 496.5,253.389 496.907,252.81C497.028,252.637 498.154,251.038 499.329,251.762C500.53,252.503 499.929,252.91 499.975,272.5C499.979,274.171 500.804,278.992 497.365,276.792C495.329,275.489 489.305,272.344 487.907,270.249C486.653,268.37 488.108,266.436 492.123,260.252Z" style="fill:rgb(69,49,42);"/>
    </g>
</svg>
